<?xml version="1.0" standalone="no"?>
<!DOCTYPE svg PUBLIC "-//W3C//DTD SVG 20010904//EN"
 "http://www.w3.org/TR/2001/REC-SVG-20010904/DTD/svg10.dtd">
<svg version="1.0" xmlns="http://www.w3.org/2000/svg"
 width="416.000000pt" height="307.000000pt" viewBox="0 0 416.000000 307.000000"
 preserveAspectRatio="xMidYMid meet">

<g transform="translate(0.000000,307.000000) scale(0.100000,-0.100000)"
fill="#000000" stroke="none">
<path d="M1793 2886 c28 -67 75 -182 106 -257 31 -75 61 -138 66 -140 16 -6
19 436 3 448 -7 6 -61 24 -119 40 l-106 29 50 -120z"/>
<path d="M2133 2883 c-18 -7 -19 -771 -2 -818 l12 -32 381 -107 c210 -58 388
-106 397 -106 38 0 39 12 39 432 0 378 -1 408 -17 417 -21 10 -774 221 -789
220 -5 0 -15 -3 -21 -6z"/>
<path d="M2276 1713 c47 -115 97 -236 111 -270 14 -35 26 -63 27 -63 0 0 32
-9 70 -20 110 -31 106 -40 106 219 0 174 -3 221 -14 230 -11 10 -356 111 -378
111 -4 0 31 -93 78 -207z"/>
<path d="M1601 970 c-156 -33 -277 -146 -315 -295 -45 -171 12 -313 152 -382
52 -26 66 -28 172 -28 110 0 119 2 181 32 36 18 74 42 84 53 18 20 18 21 -20
60 l-38 39 -31 -24 c-79 -60 -213 -71 -296 -24 -59 34 -95 109 -87 188 10 114
69 203 162 247 89 42 237 27 284 -29 19 -24 31 -21 75 18 38 33 38 35 23 59
-9 13 -45 38 -79 55 -50 25 -80 32 -143 36 -44 2 -100 0 -124 -5z"/>
<path d="M2183 970 c-110 -23 -190 -102 -188 -185 3 -74 7 -87 40 -124 44 -48
76 -64 201 -97 151 -40 194 -77 165 -140 -32 -70 -219 -75 -338 -9 l-43 23
-20 -45 c-11 -25 -20 -47 -20 -48 0 -1 18 -14 39 -28 81 -54 252 -74 360 -42
102 31 173 133 156 224 -16 83 -76 125 -245 171 -93 25 -120 36 -142 60 -32
35 -35 56 -12 89 45 64 173 66 315 7 13 -6 21 3 35 40 17 45 17 47 -1 61 -51
37 -218 61 -302 43z"/>
<path d="M21 920 c-6 -28 -11 -53 -11 -55 0 -3 49 -5 110 -5 l110 0 0 -28 c0
-15 -24 -148 -54 -295 l-53 -267 66 0 67 0 48 248 c26 136 52 268 57 295 l11
47 113 0 c63 0 116 4 119 8 3 5 7 29 10 55 l6 47 -294 0 -294 0 -11 -50z"/>
<path d="M656 632 c-36 -186 -66 -343 -66 -350 0 -9 63 -12 259 -12 288 0 271
-4 271 71 l0 39 -190 0 c-145 0 -190 3 -190 13 0 6 7 49 16 95 l17 82 169 0
c126 0 170 3 172 13 3 6 7 31 9 55 l5 42 -165 0 -166 0 7 40 c3 22 11 63 17
90 l11 50 188 0 c104 0 191 4 194 8 3 5 7 30 10 55 l4 47 -253 0 -253 0 -66
-338z"/>
<path d="M2670 620 l0 -350 65 0 65 0 0 313 c0 171 -3 329 -6 350 l-7 37 -58
0 -59 0 0 -350z"/>
<path d="M2900 915 l0 -55 109 0 c104 0 109 -1 115 -22 3 -13 6 -146 6 -295
l0 -273 65 0 65 0 0 295 0 295 115 0 115 0 0 55 0 55 -295 0 -295 0 0 -55z"/>
<path d="M3590 620 l0 -350 260 0 260 0 0 55 0 55 -195 0 -195 0 0 95 0 95
170 0 c189 0 177 -6 164 73 l-7 37 -163 0 -164 0 0 90 0 90 190 0 190 0 0 55
0 55 -255 0 -255 0 0 -350z"/>
</g>
</svg>
